<svg width="100" height="100" viewBox="0 0 100 100" fill="none" xmlns="http://www.w3.org/2000/svg">
<path d="M50 0C55.956 0 60.7841 4.82823 60.7842 10.7842V23.9639L70.1035 14.6445C74.315 10.433 81.1439 10.433 85.3555 14.6445C89.5668 18.856 89.5667 25.684 85.3555 29.8955L76.0352 39.2158H89.2158C95.1718 39.2159 100 44.044 100 50C100 55.9559 95.1717 60.7841 89.2158 60.7842H76.0361L85.3555 70.1035C89.567 74.315 89.567 81.1439 85.3555 85.3555C81.144 89.5669 74.316 89.5667 70.1045 85.3555L60.7842 76.0352V89.2158C60.7841 95.1718 55.956 100 50 100C44.044 100 39.2159 95.1718 39.2158 89.2158V76.0352L29.8955 85.3555C25.684 89.5667 18.856 89.5669 14.6445 85.3555C10.433 81.1439 10.433 74.315 14.6445 70.1035L23.9639 60.7842H10.7842C4.82824 60.7841 3.05767e-05 55.9559 0 50C0 44.044 4.82822 39.2159 10.7842 39.2158H23.9648L14.6445 29.8955C10.4333 25.684 10.4331 18.856 14.6445 14.6445C18.856 10.4331 25.6839 10.4333 29.8955 14.6445L39.2158 23.9639V10.7842C39.2159 4.82823 44.044 0 50 0Z" fill="black"/>
</svg>
