<svg width="97" height="107" viewBox="0 0 97 107" fill="none" xmlns="http://www.w3.org/2000/svg">
<path d="M80.2109 0C89.4827 0 96.9997 7.51636 97 16.7881V49.1221C96.9998 58.3939 89.4828 65.9102 80.2109 65.9102C75.6039 65.91 71.4309 64.0537 68.3975 61.0488V85.1855C68.3975 97.2048 58.6539 106.949 46.6348 106.949C40.2479 106.949 34.5036 104.197 30.5225 99.8154C27.4841 104.129 22.4657 106.949 16.7881 106.949C7.51625 106.949 0 99.432 0 90.1602V57.8271C0 48.5553 7.51625 41.0393 16.7881 41.0391C19.7188 41.0391 22.4741 41.7904 24.8721 43.1104V21.7627C24.8723 9.7436 34.6156 0 46.6348 0C54.2835 6.03497e-05 61.0097 3.94684 64.8906 9.91406C67.5169 4.07005 73.3886 0.000203271 80.2109 0Z" fill="black"/>
</svg>
