<svg width="22" height="33" viewBox="0 0 22 33" fill="none" xmlns="http://www.w3.org/2000/svg">
<path d="M11 0C17.0751 0 22 4.92487 22 11C22 13.0045 21.4601 14.8816 20.5234 16.5C21.4601 18.1184 22 19.9955 22 22C22 28.0751 17.0751 33 11 33C4.92487 33 0 28.0751 0 22C0 19.9957 0.539033 18.1183 1.47559 16.5C0.539033 14.8817 0 13.0043 0 11C0 4.92487 4.92487 0 11 0ZM17.9805 19.5C16.0813 21.0615 13.6506 22 11 22C8.57405 22 6.3334 21.2121 4.51465 19.8818C4.36062 20.4602 4.27738 21.0675 4.27734 21.6943C4.27752 25.5752 7.42386 28.7222 11.3047 28.7227C15.1859 28.7227 18.3328 25.5755 18.333 21.6943C18.333 20.9277 18.2075 20.1907 17.9805 19.5ZM11.3047 14.667C9.6517 14.6672 8.13274 15.2391 6.93262 16.1943C8.13279 17.1499 9.65156 17.7225 11.3047 17.7227C12.9579 17.7227 14.4764 17.1498 15.6768 16.1943C14.4765 15.2392 12.9578 14.667 11.3047 14.667ZM11.3047 3.66699C7.4239 3.66746 4.27758 6.81349 4.27734 10.6943C4.27738 11.5047 4.4165 12.2824 4.66895 13.0068C6.45951 11.744 8.64233 11 11 11C13.5709 11 15.9338 11.8844 17.8066 13.3623C18.1447 12.5394 18.333 11.639 18.333 10.6943C18.3328 6.8132 15.1859 3.66699 11.3047 3.66699Z" fill="black"/>
</svg>
