<svg width="16" height="16" viewBox="0 0 16 16" fill="none" xmlns="http://www.w3.org/2000/svg">
<path d="M12.7408 0C14.2134 0.00020949 15.4069 1.1944 15.4069 2.66699C15.4066 4.13941 14.2133 5.3328 12.7408 5.33301C11.2682 5.33301 10.0741 4.13954 10.0738 2.66699C10.0738 1.19427 11.2681 0 12.7408 0ZM12.7399 0.592773C11.5946 0.592948 10.6666 1.52165 10.6666 2.66699C10.6668 3.81215 11.5947 4.74006 12.7399 4.74023C13.8852 4.74023 14.8139 3.81226 14.8141 2.66699C14.8141 1.52154 13.8853 0.592773 12.7399 0.592773Z" fill="black"/>
<path d="M12.7406 10.6661C14.2132 10.6663 15.4066 11.8605 15.4066 13.3331C15.4064 14.8055 14.213 15.9989 12.7406 15.9991C11.268 15.9991 10.0738 14.8057 10.0736 13.3331C10.0736 11.8604 11.2679 10.6661 12.7406 10.6661ZM12.7406 11.2589C11.5952 11.2589 10.6664 12.1877 10.6664 13.3331C10.6666 14.4784 11.5953 15.4064 12.7406 15.4064C13.8857 15.4062 14.8136 14.4783 14.8138 13.3331C14.8138 12.1878 13.8859 11.2591 12.7406 11.2589Z" fill="black"/>
<path d="M2.66699 5.33325C4.13954 5.33346 5.33301 6.52765 5.33301 8.00024C5.3328 9.47266 4.13941 10.6661 2.66699 10.6663C1.1944 10.6663 0.00020949 9.47279 0 8.00024C0 6.52752 1.19427 5.33325 2.66699 5.33325ZM2.66699 5.92603C1.52154 5.92603 0.592773 6.85479 0.592773 8.00024C0.592983 9.14552 1.52167 10.0735 2.66699 10.0735C3.81214 10.0733 4.74002 9.14539 4.74023 8.00024C4.74023 6.85492 3.81227 5.92623 2.66699 5.92603Z" fill="black"/>
<line x1="5.59822" y1="9.0572" x2="10.3388" y2="12.0201" stroke="black"/>
<line x1="5.09039" y1="6.08123" x2="10.4236" y2="3.11834" stroke="black"/>
</svg>
