<svg width="30" height="30" viewBox="0 0 30 30" fill="none" xmlns="http://www.w3.org/2000/svg">
<path d="M9.92578 0C15.4077 0 19.8523 4.44389 19.8525 9.92578C19.8525 12.0324 19.1935 13.9839 18.0742 15.5908C18.1123 15.6202 18.1496 15.6516 18.1846 15.6865L29.6699 27.1719C30.1104 27.6124 30.1104 28.3271 29.6699 28.7676C29.2294 29.2081 28.5147 29.2081 28.0742 28.7676L16.5889 17.2822C14.8272 18.8789 12.4904 19.8525 9.92578 19.8525C4.44389 19.8523 0 15.4077 0 9.92578C0.00021955 4.44402 4.44402 0.000219555 9.92578 0ZM9.92578 2.70703C5.93914 2.70725 2.70725 5.93914 2.70703 9.92578C2.70703 13.9126 5.939 17.1453 9.92578 17.1455C13.9128 17.1455 17.1455 13.9128 17.1455 9.92578C17.1453 5.939 13.9126 2.70703 9.92578 2.70703Z" fill="#777777"/>
</svg>
