<svg width="173" height="173" viewBox="0 0 173 173" fill="none" xmlns="http://www.w3.org/2000/svg">
<circle cx="86.5" cy="86.5" r="86.5" fill="white"/>
<path d="M124.833 129.625V120.042C124.833 114.958 122.814 110.083 119.22 106.489C115.625 102.894 110.75 100.875 105.667 100.875H67.3333C62.25 100.875 57.3749 102.894 53.7804 106.489C50.186 110.083 48.1667 114.958 48.1667 120.042V129.625M105.667 62.5417C105.667 73.1271 97.0854 81.7083 86.5 81.7083C75.9145 81.7083 67.3333 73.1271 67.3333 62.5417C67.3333 51.9562 75.9145 43.375 86.5 43.375C97.0854 43.375 105.667 51.9562 105.667 62.5417Z" stroke="#1E1E1E" stroke-width="4" stroke-linecap="round" stroke-linejoin="round"/>
</svg>
